<?xml version="1.0" encoding="UTF-8" standalone="no"?>
<!DOCTYPE svg PUBLIC "-//W3C//DTD SVG 1.1//EN"
 "http://www.w3.org/Graphics/SVG/1.1/DTD/svg11.dtd">
<!-- Generated by graphviz version 2.40.1 (20161225.0304)
 -->
<!-- Title: dependencies Pages: 1 -->
<svg width="506pt" height="284pt"
 viewBox="0.00 0.00 506.00 284.00" xmlns="http://www.w3.org/2000/svg" xmlns:xlink="http://www.w3.org/1999/xlink">
<g id="graph0" class="graph" transform="scale(1 1) rotate(0) translate(4 280)">
<title>dependencies</title>
<polygon fill="#ffffff" stroke="transparent" points="-4,4 -4,-280 502,-280 502,4 -4,4"/>
<text text-anchor="start" x="228.0091" y="-42.4" font-family="sans-serif" font-weight="bold" font-size="14.00" fill="#000000">Legend</text>
<polygon fill="#ffffb3" stroke="transparent" points="15,-10 15,-30 35,-30 35,-10 15,-10"/>
<text text-anchor="start" x="38.629" y="-15.4" font-family="sans-serif" font-size="14.00" fill="#000000"> &#160;Declarations</text>
<polygon fill="#8dd3c7" stroke="transparent" points="128,-10 128,-30 148,-30 148,-10 128,-10"/>
<text text-anchor="start" x="151.7251" y="-15.4" font-family="sans-serif" font-size="14.00" fill="#000000"> &#160;Module</text>
<polygon fill="#80b1d3" stroke="transparent" points="214,-10 214,-30 234,-30 234,-10 214,-10"/>
<text text-anchor="start" x="237.7812" y="-15.4" font-family="sans-serif" font-size="14.00" fill="#000000"> &#160;Bootstrap</text>
<polygon fill="#fdb462" stroke="transparent" points="311,-10 311,-30 331,-30 331,-10 311,-10"/>
<text text-anchor="start" x="334.6732" y="-15.4" font-family="sans-serif" font-size="14.00" fill="#000000"> &#160;Providers</text>
<polygon fill="#fb8072" stroke="transparent" points="407,-10 407,-30 427,-30 427,-10 407,-10"/>
<text text-anchor="start" x="430.7258" y="-15.4" font-family="sans-serif" font-size="14.00" fill="#000000"> &#160;Exports</text>
<g id="clust1" class="cluster">
<title>cluster_SharedModule</title>
<polygon fill="none" stroke="#000000" stroke-dasharray="1,5" points="8,-70 8,-268 490,-268 490,-70 8,-70"/>
</g>
<g id="clust2" class="cluster">
<title>cluster_SharedModule_declarations</title>
<polygon fill="none" stroke="#000000" points="25,-78 25,-130 475,-130 475,-78 25,-78"/>
</g>
<g id="clust8" class="cluster">
<title>cluster_SharedModule_exports</title>
<polygon fill="none" stroke="#000000" points="16,-208 16,-260 482,-260 482,-208 16,-208"/>
</g>
<!-- NavComponent -->
<g id="node1" class="node">
<title>NavComponent</title>
<polygon fill="#ffffb3" stroke="#000000" points="467.1542,-122 362.8458,-122 362.8458,-86 467.1542,-86 467.1542,-122"/>
<text text-anchor="middle" x="415" y="-99.8" font-family="Times,serif" font-size="14.00" fill="#000000">NavComponent</text>
</g>
<!-- SharedModule -->
<g id="node5" class="node">
<title>SharedModule</title>
<polygon fill="#8dd3c7" stroke="#000000" points="249.4231,-187 246.4231,-191 225.4231,-191 222.4231,-187 150.5769,-187 150.5769,-151 249.4231,-151 249.4231,-187"/>
<text text-anchor="middle" x="200" y="-164.8" font-family="Times,serif" font-size="14.00" fill="#000000">SharedModule</text>
</g>
<!-- NavComponent&#45;&gt;SharedModule -->
<g id="edge1" class="edge">
<title>NavComponent&#45;&gt;SharedModule</title>
<path fill="none" stroke="#000000" d="M433.5256,-122.0225C433.5256,-139.3734 433.5256,-163 433.5256,-163 433.5256,-163 259.2394,-163 259.2394,-163"/>
<polygon fill="#000000" stroke="#000000" points="259.2395,-159.5001 249.2394,-163 259.2394,-166.5001 259.2395,-159.5001"/>
</g>
<!-- StateDirective -->
<g id="node2" class="node">
<title>StateDirective</title>
<polygon fill="#ffffb3" stroke="#000000" points="345.0758,-122 248.9242,-122 248.9242,-86 345.0758,-86 345.0758,-122"/>
<text text-anchor="middle" x="297" y="-99.8" font-family="Times,serif" font-size="14.00" fill="#000000">StateDirective</text>
</g>
<!-- StateDirective&#45;&gt;SharedModule -->
<g id="edge2" class="edge">
<title>StateDirective&#45;&gt;SharedModule</title>
<path fill="none" stroke="#000000" d="M248.5821,-104C243.5328,-104 240.2013,-104 240.2013,-104 240.2013,-104 240.2013,-140.8939 240.2013,-140.8939"/>
<polygon fill="#000000" stroke="#000000" points="236.7013,-140.8938 240.2013,-150.8939 243.7013,-140.8939 236.7013,-140.8938"/>
</g>
<!-- StarsPipe -->
<g id="node3" class="node">
<title>StarsPipe</title>
<polygon fill="#ffffb3" stroke="#000000" points="231.3809,-122 162.6191,-122 162.6191,-86 231.3809,-86 231.3809,-122"/>
<text text-anchor="middle" x="197" y="-99.8" font-family="Times,serif" font-size="14.00" fill="#000000">StarsPipe</text>
</g>
<!-- StarsPipe&#45;&gt;SharedModule -->
<g id="edge3" class="edge">
<title>StarsPipe&#45;&gt;SharedModule</title>
<path fill="none" stroke="#000000" d="M197,-122.1061C197,-122.1061 197,-140.991 197,-140.991"/>
<polygon fill="#000000" stroke="#000000" points="193.5001,-140.9909 197,-150.991 200.5001,-140.991 193.5001,-140.9909"/>
</g>
<!-- FormComponent -->
<g id="node4" class="node">
<title>FormComponent</title>
<polygon fill="#ffffb3" stroke="#000000" points="144.6667,-122 33.3333,-122 33.3333,-86 144.6667,-86 144.6667,-122"/>
<text text-anchor="middle" x="89" y="-99.8" font-family="Times,serif" font-size="14.00" fill="#000000">FormComponent</text>
</g>
<!-- FormComponent&#45;&gt;SharedModule -->
<g id="edge4" class="edge">
<title>FormComponent&#45;&gt;SharedModule</title>
<path fill="none" stroke="#000000" d="M144.8863,-104C151.8994,-104 156.6743,-104 156.6743,-104 156.6743,-104 156.6743,-140.8939 156.6743,-140.8939"/>
<polygon fill="#000000" stroke="#000000" points="153.1743,-140.8938 156.6743,-150.8939 160.1743,-140.8939 153.1743,-140.8938"/>
</g>
<!-- NavComponent  -->
<g id="node6" class="node">
<title>NavComponent </title>
<polygon fill="#fb8072" stroke="#000000" points="474.1537,-252 365.8463,-252 365.8463,-216 474.1537,-216 474.1537,-252"/>
<text text-anchor="middle" x="420" y="-229.8" font-family="Times,serif" font-size="14.00" fill="#000000">NavComponent </text>
</g>
<!-- SharedModule&#45;&gt;NavComponent  -->
<g id="edge5" class="edge">
<title>SharedModule&#45;&gt;NavComponent </title>
<path fill="none" stroke="#000000" stroke-dasharray="5,2" d="M249.3701,-175C308.5142,-175 399.7244,-175 399.7244,-175 399.7244,-175 399.7244,-205.9775 399.7244,-205.9775"/>
<polygon fill="#000000" stroke="#000000" points="396.2245,-205.9774 399.7244,-215.9775 403.2245,-205.9775 396.2245,-205.9774"/>
</g>
<!-- StateDirective  -->
<g id="node7" class="node">
<title>StateDirective </title>
<polygon fill="#fb8072" stroke="#000000" points="347.5767,-252 248.4233,-252 248.4233,-216 347.5767,-216 347.5767,-252"/>
<text text-anchor="middle" x="298" y="-229.8" font-family="Times,serif" font-size="14.00" fill="#000000">StateDirective </text>
</g>
<!-- SharedModule&#45;&gt;StateDirective  -->
<g id="edge6" class="edge">
<title>SharedModule&#45;&gt;StateDirective </title>
<path fill="none" stroke="#000000" stroke-dasharray="5,2" d="M239.2013,-187.1061C239.2013,-206.3391 239.2013,-234 239.2013,-234 239.2013,-234 240.12,-234 240.12,-234"/>
<polygon fill="#000000" stroke="#000000" points="238.3886,-237.5001 248.3886,-234 238.3885,-230.5001 238.3886,-237.5001"/>
</g>
<!-- StarsPipe  -->
<g id="node8" class="node">
<title>StarsPipe </title>
<polygon fill="#fb8072" stroke="#000000" points="230.3818,-252 157.6182,-252 157.6182,-216 230.3818,-216 230.3818,-252"/>
<text text-anchor="middle" x="194" y="-229.8" font-family="Times,serif" font-size="14.00" fill="#000000">StarsPipe </text>
</g>
<!-- SharedModule&#45;&gt;StarsPipe  -->
<g id="edge7" class="edge">
<title>SharedModule&#45;&gt;StarsPipe </title>
<path fill="none" stroke="#000000" stroke-dasharray="5,2" d="M194,-187.1061C194,-187.1061 194,-205.991 194,-205.991"/>
<polygon fill="#000000" stroke="#000000" points="190.5001,-205.9909 194,-215.991 197.5001,-205.991 190.5001,-205.9909"/>
</g>
<!-- FormComponent  -->
<g id="node9" class="node">
<title>FormComponent </title>
<polygon fill="#fb8072" stroke="#000000" points="139.6663,-252 24.3337,-252 24.3337,-216 139.6663,-216 139.6663,-252"/>
<text text-anchor="middle" x="82" y="-229.8" font-family="Times,serif" font-size="14.00" fill="#000000">FormComponent </text>
</g>
<!-- SharedModule&#45;&gt;FormComponent  -->
<g id="edge8" class="edge">
<title>SharedModule&#45;&gt;FormComponent </title>
<path fill="none" stroke="#000000" stroke-dasharray="5,2" d="M154.2993,-187.1061C154.2993,-206.3391 154.2993,-234 154.2993,-234 154.2993,-234 149.6684,-234 149.6684,-234"/>
<polygon fill="#000000" stroke="#000000" points="149.6685,-230.5001 139.6684,-234 149.6684,-237.5001 149.6685,-230.5001"/>
</g>
</g>
</svg>
