<?xml version="1.0" encoding="UTF-8" standalone="no"?>
<!DOCTYPE svg PUBLIC "-//W3C//DTD SVG 1.1//EN"
 "http://www.w3.org/Graphics/SVG/1.1/DTD/svg11.dtd">
<!-- Generated by graphviz version 2.40.1 (20161225.0304)
 -->
<!-- Title: dependencies Pages: 1 -->
<svg width="715pt" height="211pt"
 viewBox="0.00 0.00 715.00 211.00" xmlns="http://www.w3.org/2000/svg" xmlns:xlink="http://www.w3.org/1999/xlink">
<g id="graph0" class="graph" transform="scale(1 1) rotate(0) translate(4 207)">
<title>dependencies</title>
<polygon fill="#ffffff" stroke="transparent" points="-4,4 -4,-207 711,-207 711,4 -4,4"/>
<text text-anchor="start" x="332.5091" y="-42.4" font-family="sans-serif" font-weight="bold" font-size="14.00" fill="#000000">Legend</text>
<polygon fill="#ffffb3" stroke="transparent" points="119.5,-10 119.5,-30 139.5,-30 139.5,-10 119.5,-10"/>
<text text-anchor="start" x="143.129" y="-15.4" font-family="sans-serif" font-size="14.00" fill="#000000"> &#160;Declarations</text>
<polygon fill="#8dd3c7" stroke="transparent" points="232.5,-10 232.5,-30 252.5,-30 252.5,-10 232.5,-10"/>
<text text-anchor="start" x="256.2251" y="-15.4" font-family="sans-serif" font-size="14.00" fill="#000000"> &#160;Module</text>
<polygon fill="#80b1d3" stroke="transparent" points="318.5,-10 318.5,-30 338.5,-30 338.5,-10 318.5,-10"/>
<text text-anchor="start" x="342.2812" y="-15.4" font-family="sans-serif" font-size="14.00" fill="#000000"> &#160;Bootstrap</text>
<polygon fill="#fdb462" stroke="transparent" points="415.5,-10 415.5,-30 435.5,-30 435.5,-10 415.5,-10"/>
<text text-anchor="start" x="439.1732" y="-15.4" font-family="sans-serif" font-size="14.00" fill="#000000"> &#160;Providers</text>
<polygon fill="#fb8072" stroke="transparent" points="511.5,-10 511.5,-30 531.5,-30 531.5,-10 511.5,-10"/>
<text text-anchor="start" x="535.2258" y="-15.4" font-family="sans-serif" font-size="14.00" fill="#000000"> &#160;Exports</text>
<g id="clust1" class="cluster">
<title>cluster_ItemsModule</title>
<polygon fill="none" stroke="#000000" stroke-dasharray="1,5" points="8,-70 8,-195 699,-195 699,-70 8,-70"/>
</g>
<g id="clust2" class="cluster">
<title>cluster_ItemsModule_declarations</title>
<polygon fill="none" stroke="#000000" points="292,-78 292,-130 691,-130 691,-78 292,-78"/>
</g>
<g id="clust6" class="cluster">
<title>cluster_ItemsModule_imports</title>
<polygon fill="none" stroke="#000000" points="16,-78 16,-130 284,-130 284,-78 16,-78"/>
</g>
<!-- ListItemsComponent -->
<g id="node1" class="node">
<title>ListItemsComponent</title>
<polygon fill="#ffffb3" stroke="#000000" points="683.212,-122 548.788,-122 548.788,-86 683.212,-86 683.212,-122"/>
<text text-anchor="middle" x="616" y="-99.8" font-family="Times,serif" font-size="14.00" fill="#000000">ListItemsComponent</text>
</g>
<!-- ItemsModule -->
<g id="node4" class="node">
<title>ItemsModule</title>
<polygon fill="#8dd3c7" stroke="#000000" points="398.1515,-187 395.1515,-191 374.1515,-191 371.1515,-187 307.8485,-187 307.8485,-151 398.1515,-151 398.1515,-187"/>
<text text-anchor="middle" x="353" y="-164.8" font-family="Times,serif" font-size="14.00" fill="#000000">ItemsModule</text>
</g>
<!-- ListItemsComponent&#45;&gt;ItemsModule -->
<g id="edge1" class="edge">
<title>ListItemsComponent&#45;&gt;ItemsModule</title>
<path fill="none" stroke="#000000" d="M616,-122.2843C616,-143.3211 616,-175 616,-175 616,-175 408.2113,-175 408.2113,-175"/>
<polygon fill="#000000" stroke="#000000" points="408.2113,-171.5001 398.2113,-175 408.2113,-178.5001 408.2113,-171.5001"/>
</g>
<!-- ItemComponent -->
<g id="node2" class="node">
<title>ItemComponent</title>
<polygon fill="#ffffb3" stroke="#000000" points="530.4888,-122 423.5112,-122 423.5112,-86 530.4888,-86 530.4888,-122"/>
<text text-anchor="middle" x="477" y="-99.8" font-family="Times,serif" font-size="14.00" fill="#000000">ItemComponent</text>
</g>
<!-- ItemComponent&#45;&gt;ItemsModule -->
<g id="edge2" class="edge">
<title>ItemComponent&#45;&gt;ItemsModule</title>
<path fill="none" stroke="#000000" d="M477,-122.0225C477,-139.3734 477,-163 477,-163 477,-163 408.4689,-163 408.4689,-163"/>
<polygon fill="#000000" stroke="#000000" points="408.4689,-159.5001 398.4689,-163 408.4689,-166.5001 408.4689,-159.5001"/>
</g>
<!-- AddComponent -->
<g id="node3" class="node">
<title>AddComponent</title>
<polygon fill="#ffffb3" stroke="#000000" points="405.9399,-122 300.0601,-122 300.0601,-86 405.9399,-86 405.9399,-122"/>
<text text-anchor="middle" x="353" y="-99.8" font-family="Times,serif" font-size="14.00" fill="#000000">AddComponent</text>
</g>
<!-- AddComponent&#45;&gt;ItemsModule -->
<g id="edge3" class="edge">
<title>AddComponent&#45;&gt;ItemsModule</title>
<path fill="none" stroke="#000000" d="M353,-122.1061C353,-122.1061 353,-140.991 353,-140.991"/>
<polygon fill="#000000" stroke="#000000" points="349.5001,-140.9909 353,-150.991 356.5001,-140.991 349.5001,-140.9909"/>
</g>
<!-- ItemsRoutingModule -->
<g id="node5" class="node">
<title>ItemsRoutingModule</title>
<polygon fill="#8dd3c7" stroke="#000000" points="275.7688,-122 272.7688,-126 251.7688,-126 248.7688,-122 140.2312,-122 140.2312,-86 275.7688,-86 275.7688,-122"/>
<text text-anchor="middle" x="208" y="-99.8" font-family="Times,serif" font-size="14.00" fill="#000000">ItemsRoutingModule</text>
</g>
<!-- ItemsRoutingModule&#45;&gt;ItemsModule -->
<g id="edge4" class="edge">
<title>ItemsRoutingModule&#45;&gt;ItemsModule</title>
<path fill="none" stroke="#000000" d="M208,-122.0225C208,-139.3734 208,-163 208,-163 208,-163 297.5189,-163 297.5189,-163"/>
<polygon fill="#000000" stroke="#000000" points="297.519,-166.5001 307.5189,-163 297.5189,-159.5001 297.519,-166.5001"/>
</g>
<!-- SharedModule -->
<g id="node6" class="node">
<title>SharedModule</title>
<polygon fill="#8dd3c7" stroke="#000000" points="122.4231,-122 119.4231,-126 98.4231,-126 95.4231,-122 23.5769,-122 23.5769,-86 122.4231,-86 122.4231,-122"/>
<text text-anchor="middle" x="73" y="-99.8" font-family="Times,serif" font-size="14.00" fill="#000000">SharedModule</text>
</g>
<!-- SharedModule&#45;&gt;ItemsModule -->
<g id="edge5" class="edge">
<title>SharedModule&#45;&gt;ItemsModule</title>
<path fill="none" stroke="#000000" d="M73,-122.2843C73,-143.3211 73,-175 73,-175 73,-175 297.702,-175 297.702,-175"/>
<polygon fill="#000000" stroke="#000000" points="297.702,-178.5001 307.702,-175 297.7019,-171.5001 297.702,-178.5001"/>
</g>
</g>
</svg>
